<?xml version="1.0" standalone="no"?><svg xmlns="http://www.w3.org/2000/svg" viewBox="0 0 1440 320"><path fill="#ffeab0" fill-opacity="1" d="M0,128L34.3,160C68.6,192,137,256,206,261.3C274.3,267,343,213,411,186.7C480,160,549,160,617,165.3C685.7,171,754,181,823,197.3C891.4,213,960,235,1029,213.3C1097.1,192,1166,128,1234,96C1302.9,64,1371,64,1406,64L1440,64L1440,320L1405.7,320C1371.4,320,1303,320,1234,320C1165.7,320,1097,320,1029,320C960,320,891,320,823,320C754.3,320,686,320,617,320C548.6,320,480,320,411,320C342.9,320,274,320,206,320C137.1,320,69,320,34,320L0,320Z"></path></svg>